<?xml version="1.0" encoding="UTF-8" standalone="no"?>
<!-- Created with Inkscape (http://www.inkscape.org/) -->

<svg width="210mm" height="297mm" viewBox="0 0 210 297" version="1.1" id="svg5"
	inkscape:version="1.2.1 (9c6d41e410, 2022-07-14, custom)" sodipodi:docname="描画.svg"
	xmlns:inkscape="http://www.inkscape.org/namespaces/inkscape"
	xmlns:sodipodi="http://sodipodi.sourceforge.net/DTD/sodipodi-0.dtd" xmlns:xlink="http://www.w3.org/1999/xlink"
	xmlns="http://www.w3.org/2000/svg" xmlns:svg="http://www.w3.org/2000/svg">
	<sodipodi:namedview id="namedview7" pagecolor="#505050" bordercolor="#ffffff" borderopacity="1"
		inkscape:showpageshadow="0" inkscape:pageopacity="0" inkscape:pagecheckerboard="1" inkscape:deskcolor="#505050"
		inkscape:document-units="mm" showgrid="false" inkscape:zoom="1.5643378" inkscape:cx="-455.46428"
		inkscape:cy="604.08947" inkscape:window-width="1880" inkscape:window-height="1054" inkscape:window-x="40"
		inkscape:window-y="0" inkscape:window-maximized="1" inkscape:current-layer="layer1" />
	<defs id="defs2">
		<linearGradient inkscape:collect="always" id="linearGradient3352">
			<stop style="stop-color:#aa0000;stop-opacity:0.07610878;" offset="0" id="stop3348" />
			<stop style="stop-color:#8d331d;stop-opacity:0.16460267;" offset="0.51528937" id="stop3443" />
			<stop style="stop-color:#aa0000;stop-opacity:0.15754201;" offset="1" id="stop3350" />
		</linearGradient>
		<linearGradient inkscape:collect="always" xlink:href="#linearGradient3352" id="linearGradient3354" x1="-112.12713"
			y1="146.09492" x2="-96.430229" y2="145.64346" gradientUnits="userSpaceOnUse" />
	</defs>
	<g inkscape:label="Layer 1" inkscape:groupmode="layer" id="layer1">
		<rect style="fill:#ffffff;stroke:none;stroke-width:2.33327;stroke-dasharray:none" id="rect1992" width="132.29167"
			height="132.29167" x="-170.19977" y="90.527489" />
		<path id="path959" style="fill:#550000;stroke:none;stroke-width:3.21307;stroke-dasharray:none"
			d="m -97.10336,198.85147 c -0.240004,0.0384 -0.480311,0.0763 -0.72043,0.11254 -0.26703,0.0404 -0.533735,0.0793 -0.799921,0.11672 -0.266187,0.0374 -0.531848,0.0731 -0.796155,0.10711 -0.264307,0.034 -0.527236,0.0664 -0.788624,0.0966 -0.26139,0.0303 -0.52115,0.0585 -0.77858,0.0845 -0.25744,0.0261 -0.51276,0.05 -0.7652,0.0716 -0.25244,0.0215 -0.50205,0.0407 -0.74846,0.0573 -0.24641,0.0166 -0.48946,0.0306 -0.7288,0.0419 -0.23934,0.0113 -0.47497,0.0196 -0.70621,0.0251 -0.23123,0.006 -0.45817,0.008 -0.68026,0.007 -0.18653,-5.6e-4 -0.3785,-0.003 -0.57568,-0.008 -0.19717,-0.005 -0.39946,-0.0118 -0.60622,-0.0209 -0.20675,-0.009 -0.41813,-0.0202 -0.6334,-0.033 -0.21528,-0.013 -0.43453,-0.0279 -0.65726,-0.0444 -0.22273,-0.0164 -0.44904,-0.0346 -0.67818,-0.0544 -0.22913,-0.0197 -0.46129,-0.0409 -0.69574,-0.0636 -0.23446,-0.0227 -0.47124,-0.047 -0.70998,-0.0724 -0.23872,-0.0254 -0.47932,-0.0521 -0.72126,-0.0799 -0.24194,-0.0278 -0.48514,-0.0567 -0.72922,-0.0866 -0.0496,-0.006 -0.0996,-0.0126 -0.14936,-0.0189 3.60447,3.64531 6.71817,5.15012 6.71817,5.15012 0,0 3.2487,-1.57052 6.95077,-5.38817 z"
			inkscape:export-filename="path959.png" inkscape:export-xdpi="96" inkscape:export-ydpi="96" />
		<path style="fill:none;stroke:#000000;stroke-width:3.96875;stroke-dasharray:none"
			d="m -115.98765,121.93858 -5.55076,-9.06074 6.27378,-10.89865" id="path955" />
		<path id="path845" style="fill:#000000;stroke:none;stroke-width:3.96875;stroke-dasharray:none"
			d="m -104.05394,107.81175 c -8.35555,3.78656 -8.19528,3.29463 -13.84016,15.64525 -3.8427,8.40757 2.01941,15.52753 13.84016,16.11555 11.820762,-0.58802 17.682864,-7.70798 13.840177,-16.11555 -5.644884,-12.35062 -5.484622,-11.85869 -13.840177,-15.64525 z" />
		<ellipse style="fill:#000000;stroke:none;stroke-width:3.96875;stroke-dasharray:none" id="path957" cx="-104.05393"
			cy="146.12939" rx="12.518795" ry="8.5142794" />
		<path id="path3118" style="fill:#000000;stroke:none;stroke-width:3.21307;stroke-dasharray:none"
			d="m -90.009923,189.07462 c -0.0054,10e-4 -0.01003,0.002 -0.01548,0.003 -0.415613,0.0942 -0.853669,0.19148 -1.309494,0.29035 -0.455826,0.0989 -0.929694,0.19919 -1.417432,0.29955 -0.487738,0.10036 -0.989339,0.20085 -1.500688,0.29955 -0.511349,0.0987 -1.032183,0.19564 -1.558841,0.28951 -0.526659,0.0939 -1.059062,0.18437 -1.592729,0.27026 -0.266833,0.043 -0.534146,0.0847 -0.801175,0.1251 -0.267029,0.0404 -0.533734,0.0793 -0.799921,0.11672 -0.266187,0.0374 -0.531848,0.0735 -0.796155,0.10752 -0.264302,0.034 -0.527232,0.066 -0.788622,0.0962 -0.26139,0.0302 -0.52115,0.0584 -0.77858,0.0845 -0.25744,0.0261 -0.51276,0.05 -0.7652,0.0715 -0.25244,0.0215 -0.50205,0.0408 -0.74846,0.0573 -0.24641,0.0166 -0.48945,0.0306 -0.7288,0.0418 -0.23934,0.0112 -0.47497,0.0196 -0.70621,0.0251 -0.23124,0.005 -0.45817,0.008 -0.68026,0.008 -0.18653,-5.6e-4 -0.37851,-0.003 -0.57568,-0.008 -0.19717,-0.005 -0.39946,-0.0122 -0.60621,-0.0213 -0.20676,-0.009 -0.41814,-0.0201 -0.63341,-0.033 -0.21528,-0.0129 -0.43452,-0.0275 -0.65726,-0.0439 -0.22273,-0.0165 -0.44905,-0.0347 -0.67818,-0.0544 -0.22912,-0.0197 -0.46087,-0.0413 -0.69533,-0.064 -0.46891,-0.0454 -0.94779,-0.0962 -1.43165,-0.15186 -0.48387,-0.0556 -0.97272,-0.11595 -1.46304,-0.17948 -0.49031,-0.0635 -0.98189,-0.13039 -1.47014,-0.19956 -0.48826,-0.0692 -0.97321,-0.14043 -1.45091,-0.21295 -0.4777,-0.0725 -0.94834,-0.14647 -1.40697,-0.22006 -0.45863,-0.0736 -0.90562,-0.14685 -1.33669,-0.21923 -0.13006,-0.0218 -0.24738,-0.0424 -0.37443,-0.064 2.04969,4.43385 4.63394,7.75947 7.00557,10.15799 0.0497,0.006 0.0997,0.0127 0.14936,0.0188 0.24408,0.0299 0.48728,0.0588 0.72922,0.0866 0.24194,0.0278 0.48254,0.0545 0.72126,0.0799 0.23874,0.0254 0.47552,0.0497 0.70998,0.0724 0.23445,0.0227 0.46661,0.0439 0.69574,0.0636 0.22914,0.0197 0.45545,0.0379 0.67818,0.0544 0.22273,0.0165 0.44198,0.0314 0.65726,0.0444 0.21527,0.0129 0.42665,0.024 0.6334,0.0331 0.20676,0.009 0.40905,0.016 0.60622,0.0209 0.19718,0.005 0.38915,0.008 0.57568,0.008 0.22209,6.5e-4 0.44903,-0.002 0.68026,-0.007 0.23124,-0.005 0.46687,-0.0139 0.70621,-0.0251 0.23934,-0.0112 0.48239,-0.0253 0.7288,-0.0418 0.24641,-0.0166 0.49602,-0.0358 0.74846,-0.0573 0.25244,-0.0215 0.50776,-0.0455 0.7652,-0.0715 0.25742,-0.0261 0.51719,-0.0543 0.77858,-0.0845 0.261387,-0.0302 0.524316,-0.0626 0.788623,-0.0966 0.264306,-0.034 0.529968,-0.0697 0.796155,-0.10711 0.266186,-0.0374 0.532891,-0.0764 0.799921,-0.11672 0.240118,-0.0363 0.480426,-0.0741 0.72043,-0.11254 2.433137,-2.50911 5.061958,-5.98972 7.093437,-10.63368 z" />
		<path id="path3121" style="fill:#d4aa00;stroke:none;stroke-width:3.21307;stroke-dasharray:none"
			d="m -88.354021,184.53993 c -0.05009,0.0118 -0.0907,0.0219 -0.141827,0.0339 -0.367096,0.0864 -0.760421,0.17731 -1.176034,0.27152 -0.415611,0.0942 -0.853249,0.19148 -1.309074,0.29034 -0.455826,0.0989 -0.929695,0.19919 -1.417433,0.29956 -0.487738,0.10036 -0.989338,0.20085 -1.500687,0.29955 -0.511349,0.0987 -1.032601,0.19563 -1.55926,0.28951 -0.263329,0.0469 -0.528044,0.0933 -0.793645,0.13848 -0.265599,0.0451 -0.531831,0.0892 -0.798665,0.13221 -0.266834,0.0429 -0.534147,0.0847 -0.801176,0.12509 -0.267028,0.0404 -0.534152,0.0793 -0.800339,0.11672 -0.266186,0.0374 -0.53143,0.0731 -0.795737,0.1071 -0.264306,0.034 -0.527653,0.0664 -0.789042,0.0966 -0.26139,0.0302 -0.52073,0.0584 -0.77817,0.0845 -0.25743,0.0261 -0.51275,0.05 -0.76519,0.0715 -0.25244,0.0215 -0.50205,0.0408 -0.74846,0.0573 -0.24641,0.0166 -0.48946,0.0302 -0.7288,0.0414 -0.23934,0.0112 -0.47497,0.0196 -0.7062,0.0251 -0.23124,0.005 -0.45818,0.008 -0.68027,0.008 -0.18653,-5.6e-4 -0.37892,-0.003 -0.5761,-0.008 -0.19717,-0.005 -0.39904,-0.0122 -0.60579,-0.0213 -0.20676,-0.009 -0.41814,-0.0201 -0.63341,-0.033 -0.21528,-0.0129 -0.43453,-0.0275 -0.65726,-0.0439 -0.22274,-0.0165 -0.44905,-0.0347 -0.67817,-0.0544 -0.22913,-0.0197 -0.46129,-0.0409 -0.69575,-0.0636 -0.23447,-0.0227 -0.47125,-0.047 -0.70997,-0.0724 -0.23874,-0.0254 -0.47934,-0.0521 -0.72127,-0.0799 -0.48387,-0.0556 -0.97314,-0.11552 -1.46345,-0.17906 -0.49032,-0.0635 -0.98148,-0.13081 -1.46973,-0.19998 -0.48826,-0.0692 -0.97363,-0.14042 -1.45132,-0.21295 -0.4777,-0.0725 -0.94793,-0.14604 -1.40656,-0.21964 -0.45863,-0.0736 -0.90562,-0.14726 -1.33669,-0.21964 -0.43106,-0.0724 -0.8463,-0.14364 -1.2413,-0.21254 -0.39499,-0.0689 -0.76955,-0.1356 -1.11997,-0.19872 -0.053,-0.01 -0.0954,-0.0174 -0.14727,-0.0268 0.52224,1.65319 1.12377,3.18675 1.78017,4.60665 0.12705,0.0216 0.24437,0.0422 0.37443,0.064 0.43107,0.0724 0.87806,0.14563 1.33669,0.21923 0.45863,0.0736 0.92927,0.14753 1.40697,0.22006 0.4777,0.0725 0.96265,0.14378 1.45091,0.21295 0.48825,0.0692 0.97983,0.13602 1.47014,0.19956 0.49032,0.0635 0.97917,0.12386 1.46304,0.17948 0.48386,0.0556 0.96274,0.10645 1.43165,0.15186 0.23446,0.0227 0.46621,0.0443 0.69533,0.064 0.22913,0.0197 0.45545,0.0379 0.67818,0.0544 0.22274,0.0165 0.44198,0.031 0.65726,0.0439 0.21527,0.0129 0.42665,0.024 0.63341,0.033 0.20675,0.009 0.40904,0.0164 0.60621,0.0213 0.19717,0.005 0.38915,0.008 0.57568,0.008 0.22209,6.6e-4 0.44902,-0.002 0.68026,-0.008 0.23124,-0.005 0.46687,-0.0139 0.70621,-0.0251 0.23935,-0.0112 0.48239,-0.0253 0.7288,-0.0418 0.24641,-0.0166 0.49602,-0.0358 0.74846,-0.0573 0.25244,-0.0215 0.50776,-0.0455 0.7652,-0.0715 0.25743,-0.0261 0.51719,-0.0543 0.77858,-0.0845 0.26139,-0.0302 0.52432,-0.0622 0.788623,-0.0962 0.264305,-0.034 0.52997,-0.0701 0.796155,-0.10752 0.266187,-0.0374 0.532892,-0.0764 0.799921,-0.11672 0.267027,-0.0404 0.534344,-0.0821 0.801175,-0.1251 0.533667,-0.0859 1.066072,-0.17638 1.592729,-0.27026 0.526658,-0.0939 1.047493,-0.19081 1.558841,-0.28951 0.511347,-0.0987 1.01295,-0.19919 1.500688,-0.29955 0.487736,-0.10036 0.961608,-0.20069 1.417432,-0.29955 0.455825,-0.0989 0.893881,-0.19614 1.309494,-0.29035 0.0054,-0.001 0.01003,-0.002 0.01548,-0.003 0.613896,-1.40337 1.173001,-2.91349 1.655902,-4.53469 z" />
		<path id="path3127" style="fill:#000000;stroke:none;stroke-width:3.21307;stroke-dasharray:none"
			d="m -86.983027,178.20081 c -0.203806,0.0507 -0.411458,0.10234 -0.654747,0.16149 -0.310281,0.0754 -0.651212,0.15751 -1.018309,0.24391 -0.367097,0.0864 -0.760422,0.1773 -1.176033,0.27152 -0.415613,0.0942 -0.85325,0.19148 -1.309075,0.29035 -0.455826,0.0989 -0.929694,0.19919 -1.417432,0.29955 -0.487739,0.10036 -0.989339,0.20085 -1.500688,0.29955 -0.255675,0.0494 -0.513961,0.0981 -0.773982,0.14643 -0.260021,0.0483 -0.521948,0.0961 -0.785278,0.14308 -0.263329,0.0469 -0.528044,0.0933 -0.793645,0.13848 -0.2656,0.0451 -0.531832,0.0893 -0.798665,0.1322 -0.266833,0.043 -0.534147,0.0847 -0.801175,0.1251 -0.26703,0.0404 -0.533735,0.0793 -0.799921,0.11672 -0.266187,0.0374 -0.531848,0.0731 -0.796155,0.1071 -0.264307,0.034 -0.527658,0.0664 -0.789048,0.0966 -0.26138,0.0302 -0.52073,0.0584 -0.77816,0.0845 -0.25744,0.0261 -0.51276,0.05 -0.7652,0.0715 -0.25244,0.0215 -0.50205,0.0403 -0.74846,0.0569 -0.24641,0.0166 -0.48945,0.0306 -0.7288,0.0418 -0.23934,0.0112 -0.47496,0.0196 -0.7062,0.0251 -0.23123,0.005 -0.45818,0.008 -0.68027,0.008 -0.18653,-5.6e-4 -0.37892,-0.003 -0.57609,-0.008 -0.19717,-0.005 -0.39904,-0.0122 -0.6058,-0.0213 -0.20675,-0.009 -0.41814,-0.0201 -0.63341,-0.0331 -0.21528,-0.0129 -0.43452,-0.0275 -0.65726,-0.0439 -0.22273,-0.0165 -0.44905,-0.0347 -0.67817,-0.0544 -0.22913,-0.0197 -0.46129,-0.0409 -0.69575,-0.0636 -0.23446,-0.0227 -0.47124,-0.047 -0.70997,-0.0724 -0.23873,-0.0254 -0.47933,-0.0521 -0.72126,-0.0799 -0.24194,-0.0278 -0.48514,-0.0567 -0.72922,-0.0866 -0.24408,-0.0299 -0.48908,-0.0611 -0.73424,-0.0929 -0.49032,-0.0635 -0.98147,-0.13038 -1.46973,-0.19955 -0.48826,-0.0692 -0.97362,-0.14043 -1.45131,-0.21295 -0.4777,-0.0725 -0.94793,-0.14605 -1.40657,-0.21965 -0.45863,-0.0736 -0.90561,-0.14726 -1.33668,-0.21964 -0.43107,-0.0724 -0.8463,-0.14364 -1.2413,-0.21253 -0.39499,-0.0689 -0.76955,-0.13561 -1.11998,-0.19873 -0.35041,-0.0631 -0.67661,-0.12274 -0.97395,-0.1778 -0.1964,-0.0364 -0.29423,-0.0558 -0.46439,-0.0879 0.35359,2.23362 0.84916,4.30022 1.45131,6.2065 0.0519,0.009 0.0943,0.0172 0.14727,0.0268 0.35042,0.0631 0.72498,0.12983 1.11997,0.19872 0.395,0.0689 0.81024,0.14015 1.2413,0.21254 0.43107,0.0724 0.87809,0.14604 1.33669,0.21964 0.45863,0.0736 0.92886,0.14712 1.40656,0.21964 0.47769,0.0725 0.96306,0.14378 1.45132,0.21295 0.48825,0.0692 0.97941,0.13645 1.46973,0.19998 0.49029,0.0635 0.97958,0.12345 1.46345,0.17906 0.24193,0.0278 0.48253,0.0545 0.72127,0.0799 0.23872,0.0254 0.4755,0.0497 0.70997,0.0724 0.23446,0.0227 0.46662,0.0439 0.69575,0.0636 0.22912,0.0197 0.45543,0.0379 0.67817,0.0544 0.22273,0.0165 0.44198,0.031 0.65726,0.0439 0.21527,0.0129 0.42665,0.024 0.63341,0.033 0.20675,0.009 0.40862,0.0164 0.60579,0.0213 0.19718,0.005 0.38957,0.008 0.5761,0.008 0.22209,6.5e-4 0.44903,-0.002 0.68027,-0.008 0.23123,-0.005 0.46686,-0.0139 0.7062,-0.0251 0.23934,-0.0112 0.48239,-0.0248 0.7288,-0.0414 0.24641,-0.0166 0.49602,-0.0358 0.74846,-0.0573 0.25244,-0.0215 0.50776,-0.0455 0.76519,-0.0715 0.25744,-0.0261 0.51678,-0.0543 0.77817,-0.0845 0.261389,-0.0302 0.524739,-0.0626 0.789042,-0.0966 0.264307,-0.034 0.529551,-0.0697 0.795737,-0.1071 0.266187,-0.0374 0.533313,-0.0764 0.800339,-0.11672 0.267029,-0.0404 0.534342,-0.0822 0.801176,-0.12509 0.266834,-0.043 0.533066,-0.0871 0.798665,-0.13221 0.265601,-0.0451 0.530316,-0.0915 0.793645,-0.13848 0.526656,-0.0939 1.047911,-0.19081 1.55926,-0.28951 0.511347,-0.0987 1.012951,-0.19919 1.500687,-0.29955 0.487738,-0.10037 0.961607,-0.20069 1.417433,-0.29956 0.455823,-0.0989 0.893465,-0.19613 1.309074,-0.29034 0.415613,-0.0942 0.808938,-0.18512 1.176034,-0.27152 0.05113,-0.012 0.09173,-0.0221 0.141827,-0.0339 0.580382,-1.94847 1.049451,-4.05902 1.370994,-6.33912 z" />
		<path id="path3136" style="fill:#ffcc00;stroke:none;stroke-width:3.21307;stroke-dasharray:none"
			d="m -86.558384,173.40798 c -0.09567,0.0242 -0.171567,0.0436 -0.281561,0.0711 -0.245163,0.0613 -0.524783,0.1304 -0.835064,0.20583 -0.31028,0.0754 -0.651212,0.15709 -1.018309,0.24349 -0.367096,0.0864 -0.760422,0.17773 -1.176033,0.27194 -0.415612,0.0942 -0.85325,0.19149 -1.309075,0.29035 -0.455825,0.0989 -0.929696,0.19919 -1.417432,0.29954 -0.487738,0.10037 -0.98934,0.20086 -1.500688,0.29956 -0.255675,0.0494 -0.513961,0.0981 -0.773982,0.14643 -0.260021,0.0483 -0.521948,0.0961 -0.785278,0.14308 -0.263328,0.0469 -0.528044,0.0933 -0.793645,0.13848 -0.265599,0.0452 -0.531832,0.0892 -0.798665,0.13221 -0.266832,0.0429 -0.534147,0.0847 -0.801175,0.12509 -0.267029,0.0404 -0.533734,0.0793 -0.799921,0.11673 -0.266186,0.0374 -0.53185,0.0731 -0.796155,0.1071 -0.264307,0.034 -0.527653,0.066 -0.789043,0.0962 -0.26139,0.0302 -0.52073,0.0589 -0.77817,0.0849 -0.25743,0.0261 -0.51275,0.05 -0.76519,0.0715 -0.25244,0.0215 -0.50205,0.0403 -0.74846,0.0569 -0.24642,0.0166 -0.48945,0.0306 -0.7288,0.0418 -0.23934,0.0112 -0.47497,0.0196 -0.70621,0.0251 -0.23124,0.005 -0.45817,0.008 -0.68026,0.008 -0.18653,-5.6e-4 -0.37892,-0.003 -0.5761,-0.008 -0.19717,-0.005 -0.39904,-0.0123 -0.60579,-0.0213 -0.20676,-0.009 -0.41814,-0.0201 -0.63341,-0.0331 -0.21528,-0.0129 -0.43452,-0.0275 -0.65726,-0.0439 -0.22274,-0.0165 -0.44905,-0.0347 -0.67818,-0.0544 -0.22912,-0.0197 -0.46128,-0.0413 -0.69575,-0.064 -0.23445,-0.0227 -0.47124,-0.0466 -0.70996,-0.072 -0.23873,-0.0254 -0.47934,-0.0521 -0.72127,-0.0799 -0.24194,-0.0278 -0.48514,-0.0567 -0.72922,-0.0866 -0.24408,-0.0299 -0.48908,-0.0611 -0.73424,-0.0929 -0.49031,-0.0635 -0.98147,-0.1304 -1.46972,-0.19957 -0.48826,-0.0692 -0.97363,-0.14042 -1.45133,-0.21294 -0.47769,-0.0725 -0.94792,-0.14647 -1.40655,-0.22007 -0.45863,-0.0736 -0.90562,-0.14683 -1.33669,-0.21922 -0.43106,-0.0724 -0.8463,-0.14364 -1.24129,-0.21253 -0.395,-0.0689 -0.76955,-0.13561 -1.11998,-0.19873 -0.35041,-0.0631 -0.67662,-0.12275 -0.97396,-0.17781 -0.39634,-0.0734 -0.65273,-0.12304 -0.93715,-0.17738 0.001,0.0254 0.002,0.0507 0.004,0.0761 0.0974,1.64051 0.2706,3.20237 0.50623,4.69075 0.17016,0.032 0.26799,0.0515 0.46439,0.0879 0.29734,0.0551 0.62354,0.11468 0.97395,0.1778 0.35043,0.0631 0.72499,0.12983 1.11998,0.19873 0.395,0.0689 0.81023,0.14014 1.2413,0.21253 0.43107,0.0724 0.87805,0.14605 1.33668,0.21964 0.45864,0.0736 0.92887,0.14712 1.40657,0.21965 0.47769,0.0725 0.96305,0.14377 1.45131,0.21295 0.48826,0.0692 0.97941,0.13602 1.46973,0.19955 0.24516,0.0318 0.49016,0.063 0.73424,0.0929 0.24408,0.0299 0.48728,0.0588 0.72922,0.0866 0.24193,0.0278 0.48253,0.0545 0.72126,0.0799 0.23873,0.0254 0.47551,0.0497 0.70997,0.0724 0.23446,0.0227 0.46662,0.0439 0.69575,0.0636 0.22912,0.0197 0.45544,0.0379 0.67817,0.0544 0.22274,0.0165 0.44198,0.031 0.65726,0.0439 0.21527,0.0129 0.42666,0.024 0.63341,0.0331 0.20676,0.009 0.40863,0.0164 0.6058,0.0213 0.19717,0.005 0.38956,0.008 0.57609,0.008 0.22209,6.6e-4 0.44904,-0.002 0.68027,-0.008 0.23124,-0.005 0.46686,-0.0139 0.7062,-0.0251 0.23935,-0.0112 0.48239,-0.0253 0.7288,-0.0418 0.24641,-0.0166 0.49602,-0.0354 0.74846,-0.0569 0.25244,-0.0215 0.50776,-0.0455 0.7652,-0.0715 0.25743,-0.0261 0.51678,-0.0543 0.77816,-0.0845 0.26139,-0.0302 0.524741,-0.0626 0.789048,-0.0966 0.264307,-0.034 0.529968,-0.0697 0.796155,-0.1071 0.266186,-0.0374 0.532891,-0.0764 0.799921,-0.11672 0.267028,-0.0404 0.534342,-0.0821 0.801175,-0.1251 0.266833,-0.0429 0.533065,-0.0871 0.798665,-0.1322 0.265601,-0.0451 0.530316,-0.0915 0.793645,-0.13848 0.26333,-0.0469 0.525257,-0.0947 0.785278,-0.14308 0.260021,-0.0483 0.518307,-0.0971 0.773982,-0.14643 0.511349,-0.0987 1.012949,-0.19919 1.500688,-0.29955 0.487738,-0.10036 0.961606,-0.20069 1.417432,-0.29955 0.455825,-0.0989 0.893462,-0.19614 1.309075,-0.29035 0.415611,-0.0942 0.808936,-0.18512 1.176033,-0.27152 0.367097,-0.0864 0.708028,-0.16848 1.018309,-0.24391 0.243289,-0.0592 0.450941,-0.11082 0.654747,-0.16149 0.176796,-1.25369 0.309681,-2.55789 0.390338,-3.91635 0.01743,-0.29363 0.02825,-0.58571 0.0343,-0.87648 z" />
		<path id="path3133" style="fill:#000000;stroke:none;stroke-width:3.21307;stroke-dasharray:none"
			d="m -87.390518,166.90109 c -0.284208,0.0758 -0.544158,0.14637 -0.945094,0.24935 -0.295582,0.0759 -0.620073,0.15821 -0.969779,0.24517 -0.349706,0.087 -0.724467,0.17838 -1.12039,0.27319 -0.395923,0.0948 -0.812925,0.19294 -1.247156,0.29244 -0.434233,0.0995 -0.885861,0.20064 -1.350494,0.30165 -0.464632,0.101 -0.94244,0.20188 -1.429565,0.30122 -0.243563,0.0497 -0.489462,0.099 -0.737165,0.14769 -0.247703,0.0486 -0.497189,0.0967 -0.748043,0.14391 -0.250854,0.0473 -0.502974,0.0935 -0.755992,0.1389 -0.253017,0.0454 -0.50682,0.0898 -0.761012,0.13304 -0.254193,0.0432 -0.508726,0.0853 -0.763104,0.12593 -0.254379,0.0406 -0.508691,0.0799 -0.762268,0.11756 -0.253576,0.0376 -0.506716,0.0737 -0.758502,0.10794 -0.251785,0.0342 -0.502388,0.0666 -0.751388,0.0971 -0.24901,0.0304 -0.49612,0.0587 -0.74135,0.0849 -0.24524,0.0263 -0.48831,0.0503 -0.7288,0.072 -0.24048,0.0217 -0.47858,0.0411 -0.71332,0.0577 -0.23473,0.0167 -0.46606,0.031 -0.69407,0.0423 -0.22801,0.0113 -0.45246,0.0196 -0.67274,0.0251 -0.22028,0.006 -0.43647,0.008 -0.64805,0.008 -0.17769,-5.6e-4 -0.36065,-0.003 -0.54848,-0.008 -0.18783,-0.005 -0.38081,-0.0122 -0.57776,-0.0213 -0.19697,-0.009 -0.39822,-0.0205 -0.6033,-0.0335 -0.20507,-0.013 -0.41369,-0.0278 -0.62587,-0.0444 -0.21218,-0.0166 -0.42769,-0.0349 -0.64596,-0.0548 -0.21828,-0.0199 -0.43934,-0.0412 -0.6627,-0.064 -0.22335,-0.0229 -0.44908,-0.0472 -0.67651,-0.0728 -0.2274,-0.0256 -0.45648,-0.0523 -0.68695,-0.0803 -0.46095,-0.056 -0.92733,-0.11638 -1.39443,-0.18032 -0.46708,-0.064 -0.93515,-0.13162 -1.40028,-0.20124 -0.46512,-0.0696 -0.92721,-0.14121 -1.38229,-0.21421 -0.45506,-0.073 -0.90312,-0.14724 -1.34003,-0.22131 -0.43691,-0.0741 -0.86245,-0.14805 -1.2731,-0.2209 -0.41064,-0.0728 -0.80644,-0.14445 -1.18272,-0.21378 -0.37628,-0.0693 -0.73302,-0.13646 -1.06684,-0.19999 -0.33382,-0.0635 -0.64468,-0.12365 -0.92794,-0.17906 -0.51696,-0.10113 -0.91163,-0.18101 -1.22206,-0.24432 -0.5173,2.07729 -0.7423,4.29467 -0.61333,6.59725 0.28442,0.0543 0.5408,0.10399 0.93715,0.17738 0.29734,0.0551 0.62355,0.1147 0.97396,0.17781 0.35043,0.0631 0.72498,0.12984 1.11998,0.19873 0.39499,0.0689 0.81023,0.14015 1.24129,0.21253 0.43107,0.0724 0.87806,0.14563 1.33669,0.21922 0.45863,0.0736 0.92886,0.14754 1.40655,0.22007 0.4777,0.0725 0.96307,0.14377 1.45133,0.21294 0.48825,0.0692 0.97941,0.13603 1.46972,0.19957 0.24516,0.0318 0.49016,0.0629 0.73424,0.0929 0.24408,0.0299 0.48728,0.0588 0.72922,0.0866 0.24193,0.0278 0.48254,0.0545 0.72127,0.0799 0.23872,0.0254 0.47551,0.0493 0.70996,0.072 0.23447,0.0227 0.46663,0.0443 0.69575,0.064 0.22913,0.0197 0.45544,0.0379 0.67818,0.0544 0.22274,0.0165 0.44198,0.031 0.65726,0.0439 0.21527,0.0129 0.42665,0.024 0.63341,0.0331 0.20675,0.009 0.40862,0.0164 0.60579,0.0213 0.19718,0.005 0.38957,0.008 0.5761,0.008 0.22209,6.6e-4 0.44902,-0.002 0.68026,-0.008 0.23124,-0.005 0.46687,-0.0139 0.70621,-0.0251 0.23935,-0.0112 0.48238,-0.0253 0.7288,-0.0418 0.24641,-0.0166 0.49602,-0.0354 0.74846,-0.0569 0.25244,-0.0215 0.50776,-0.0455 0.76519,-0.0715 0.25744,-0.0261 0.51678,-0.0547 0.77817,-0.0849 0.26139,-0.0302 0.524736,-0.0622 0.789043,-0.0962 0.264306,-0.034 0.529968,-0.0697 0.796155,-0.1071 0.266187,-0.0374 0.532892,-0.0764 0.799921,-0.11673 0.267029,-0.0404 0.534342,-0.0821 0.801175,-0.12509 0.266833,-0.043 0.533066,-0.0871 0.798665,-0.13221 0.265601,-0.0451 0.530316,-0.0915 0.793645,-0.13848 0.26333,-0.0469 0.525257,-0.0947 0.785278,-0.14308 0.260021,-0.0483 0.518307,-0.0971 0.773982,-0.14643 0.511349,-0.0987 1.01295,-0.19919 1.500688,-0.29956 0.487737,-0.10035 0.961606,-0.20068 1.417432,-0.29954 0.455825,-0.0989 0.893463,-0.19614 1.309075,-0.29035 0.415612,-0.0942 0.808937,-0.18554 1.176033,-0.27194 0.367097,-0.0864 0.708029,-0.16806 1.018309,-0.24349 0.310281,-0.0754 0.589901,-0.14452 0.835064,-0.20583 0.109994,-0.0275 0.185885,-0.0469 0.281561,-0.0711 0.04743,-2.2783 -0.249684,-4.46572 -0.832134,-6.50689 z" />
		<path id="path3130" style="fill:#d4aa00;stroke:none;stroke-width:3.21307;stroke-dasharray:none"
			d="m -89.528799,161.92167 c -0.268383,0.0854 -0.567991,0.18063 -0.986514,0.30792 -0.254863,0.0775 -0.534785,0.1614 -0.836317,0.25018 -0.301536,0.0888 -0.62463,0.18225 -0.966013,0.27906 -0.341385,0.0968 -0.701211,0.19712 -1.075626,0.29872 -0.374417,0.10158 -0.763691,0.20478 -1.164319,0.30791 -0.40063,0.10313 -0.812492,0.20608 -1.232514,0.30751 -0.420023,0.10141 -0.848027,0.20099 -1.280626,0.29746 -0.216297,0.0482 -0.433653,0.0959 -0.651818,0.14224 -0.218163,0.0464 -0.437242,0.0918 -0.65642,0.13597 -0.219175,0.0441 -0.438755,0.087 -0.658093,0.12844 -0.219338,0.0415 -0.438611,0.0816 -0.657257,0.12007 -0.218645,0.0384 -0.436394,0.0751 -0.653494,0.11003 -0.2171,0.035 -0.43334,0.0681 -0.64805,0.0992 -0.21471,0.0311 -0.42781,0.0602 -0.63927,0.087 -0.21145,0.0268 -0.42145,0.0511 -0.62881,0.0732 -0.20735,0.0221 -0.41218,0.042 -0.61458,0.059 -0.2024,0.017 -0.40209,0.0311 -0.59869,0.0427 -0.19659,0.0115 -0.39033,0.0203 -0.58027,0.0259 -0.18994,0.006 -0.3761,0.008 -0.55852,0.008 -0.15322,-5.7e-4 -0.31122,-0.003 -0.47318,-0.008 -0.16196,-0.005 -0.32803,-0.0124 -0.49786,-0.0217 -0.16983,-0.009 -0.3432,-0.0206 -0.52003,-0.0339 -0.17682,-0.0133 -0.35716,-0.0287 -0.54011,-0.0456 -0.18295,-0.0169 -0.36864,-0.0354 -0.55685,-0.0556 -0.1882,-0.0203 -0.3789,-0.0424 -0.57149,-0.0657 -0.38517,-0.0467 -0.77816,-0.0993 -1.17562,-0.15647 -0.39745,-0.0572 -0.79923,-0.1188 -1.20197,-0.18409 -0.40274,-0.0653 -0.80635,-0.13392 -1.20741,-0.205 -0.40106,-0.0711 -0.79955,-0.14469 -1.19193,-0.21923 -0.39238,-0.0745 -0.77882,-0.14987 -1.15554,-0.2255 -0.37672,-0.0756 -0.74372,-0.15153 -1.0978,-0.22592 -0.35407,-0.0744 -0.69513,-0.14759 -1.01956,-0.21838 -0.6489,-0.14159 -1.23143,-0.27342 -1.71991,-0.38658 -0.48848,-0.11315 -0.88294,-0.20765 -1.15512,-0.27361 -0.17317,-0.042 -0.20148,-0.049 -0.26859,-0.0657 -0.8354,1.54034 -1.49337,3.21913 -1.93705,5.00077 0.31043,0.0633 0.7051,0.14319 1.22206,0.24432 0.28326,0.0554 0.59412,0.11554 0.92794,0.17906 0.33382,0.0635 0.69056,0.13065 1.06684,0.19999 0.37628,0.0693 0.77208,0.14093 1.18272,0.21378 0.41065,0.0729 0.83619,0.14683 1.2731,0.2209 0.43691,0.0741 0.88497,0.14833 1.34003,0.22131 0.45508,0.073 0.91717,0.1446 1.38229,0.21421 0.46513,0.0696 0.9332,0.13729 1.40028,0.20124 0.4671,0.0639 0.93348,0.12434 1.39443,0.18032 0.23047,0.028 0.45954,0.0548 0.68695,0.0803 0.22743,0.0256 0.45316,0.0499 0.67651,0.0728 0.22336,0.0229 0.44442,0.0442 0.6627,0.064 0.21827,0.0199 0.43378,0.0382 0.64596,0.0548 0.21218,0.0166 0.4208,0.0314 0.62587,0.0444 0.20508,0.013 0.40633,0.0243 0.6033,0.0335 0.19695,0.009 0.38993,0.0163 0.57776,0.0213 0.18783,0.005 0.37079,0.008 0.54848,0.008 0.21158,6.7e-4 0.42777,-0.002 0.64805,-0.008 0.22028,-0.006 0.44473,-0.0138 0.67274,-0.0251 0.22801,-0.0113 0.45934,-0.0256 0.69407,-0.0423 0.23474,-0.0167 0.47284,-0.0361 0.71332,-0.0577 0.24049,-0.0217 0.48356,-0.0457 0.7288,-0.072 0.24523,-0.0262 0.49234,-0.0545 0.74135,-0.0849 0.24901,-0.0304 0.499602,-0.0628 0.751388,-0.0971 0.251786,-0.0342 0.504926,-0.0703 0.758502,-0.10794 0.253577,-0.0376 0.507889,-0.0769 0.762268,-0.11756 0.254379,-0.0406 0.508911,-0.0827 0.763104,-0.12593 0.254192,-0.0432 0.507994,-0.0876 0.761012,-0.13304 0.253018,-0.0454 0.505137,-0.0916 0.755992,-0.1389 0.250854,-0.0472 0.50034,-0.0953 0.748043,-0.14391 0.247703,-0.0487 0.493602,-0.098 0.737165,-0.14769 0.487125,-0.0993 0.964932,-0.20022 1.429565,-0.30122 0.464633,-0.10101 0.916261,-0.20215 1.350494,-0.30165 0.434232,-0.0995 0.851232,-0.19762 1.247156,-0.29244 0.395923,-0.0948 0.770684,-0.18624 1.12039,-0.27319 0.349707,-0.087 0.674197,-0.16925 0.969779,-0.24517 0.400937,-0.10298 0.660885,-0.17356 0.945094,-0.24935 -0.508982,-1.78369 -1.235131,-3.45589 -2.138281,-4.97942 z" />
		<path id="path3124" style="fill:#000000;stroke:none;stroke-width:3.21307;stroke-dasharray:none"
			d="m -104.05413,152.96482 c -6.11051,0 -11.767,3.8414 -14.91484,9.64548 0.0671,0.0167 0.0954,0.0237 0.26859,0.0657 0.27218,0.066 0.66664,0.16046 1.15512,0.27361 0.48848,0.11316 1.07101,0.24499 1.71991,0.38658 0.32445,0.0708 0.66549,0.144 1.01956,0.21838 0.35408,0.0744 0.72108,0.1503 1.0978,0.22592 0.37672,0.0756 0.76316,0.15098 1.15554,0.2255 0.39238,0.0745 0.79087,0.14815 1.19193,0.21923 0.40106,0.0711 0.80467,0.13972 1.20741,0.205 0.40274,0.0653 0.80452,0.12693 1.20197,0.18409 0.39746,0.0571 0.79045,0.10979 1.17562,0.15647 0.19259,0.0233 0.38329,0.0454 0.57149,0.0657 0.18821,0.0203 0.3739,0.0387 0.55685,0.0556 0.18295,0.0169 0.36329,0.0323 0.54011,0.0456 0.17683,0.0133 0.3502,0.0246 0.52003,0.0339 0.16983,0.009 0.3359,0.0167 0.49786,0.0217 0.16196,0.005 0.31996,0.008 0.47318,0.008 0.18242,6.8e-4 0.36858,-0.002 0.55852,-0.008 0.18994,-0.006 0.38368,-0.0144 0.58027,-0.0259 0.1966,-0.0115 0.39629,-0.0257 0.59869,-0.0427 0.2024,-0.017 0.40723,-0.0369 0.61458,-0.059 0.20736,-0.0221 0.41736,-0.0464 0.62881,-0.0732 0.21146,-0.0268 0.42456,-0.0559 0.63927,-0.087 0.21471,-0.0311 0.43095,-0.0642 0.64805,-0.0992 0.2171,-0.035 0.434848,-0.0716 0.653494,-0.11003 0.218646,-0.0384 0.437919,-0.0786 0.657257,-0.12007 0.219338,-0.0415 0.438916,-0.0843 0.658093,-0.12844 0.219178,-0.0441 0.438256,-0.0896 0.65642,-0.13597 0.218165,-0.0464 0.435519,-0.094 0.651818,-0.14224 0.432599,-0.0965 0.860603,-0.19605 1.280626,-0.29746 0.420023,-0.10143 0.831884,-0.20438 1.232514,-0.30751 0.400629,-0.10313 0.789902,-0.20633 1.164319,-0.30791 0.374417,-0.1016 0.734241,-0.20191 1.075626,-0.29872 0.341384,-0.0968 0.664477,-0.19027 0.966013,-0.27906 0.301534,-0.0888 0.581453,-0.17266 0.836317,-0.25018 0.418523,-0.12729 0.718131,-0.22257 0.986514,-0.30792 -3.211592,-5.41764 -8.65963,-8.95685 -14.525331,-8.95685 z" />
		<g id="g2836" transform="translate(4.321861,0.32267729)">
			<path style="fill:none;stroke:#000000;stroke-width:3.96875;stroke-dasharray:none"
				d="m -143.1907,107.68836 12.08048,28.13337 15.72434,4.99057" id="path113" sodipodi:nodetypes="ccc" />
			<path id="path1933" style="fill:#000000;stroke:none;stroke-width:3.96875;stroke-dasharray:none"
				d="m -147.94982,107.77994 6.69065,3.19876 0.46862,-7.40146 -2.40015,4.11112 z"
				inkscape:transform-center-x="1.1794913" inkscape:transform-center-y="-0.41039441" />
			<path id="path2774" style="fill:#000000;stroke:none;stroke-width:3.96875;stroke-dasharray:none"
				d="m -147.13233,109.28683 6.69065,3.19876 0.46862,-7.40146 -2.40015,4.11112 z"
				inkscape:transform-center-x="1.1794913" inkscape:transform-center-y="-0.41039441" />
			<path id="path2776" style="fill:#000000;stroke:none;stroke-width:3.96875;stroke-dasharray:none"
				d="m -146.18722,111.15506 6.69065,3.19876 0.46862,-7.40146 -2.40015,4.11112 z"
				inkscape:transform-center-x="1.1794913" inkscape:transform-center-y="-0.41039441" />
			<path id="path2778" style="fill:#000000;stroke:none;stroke-width:3.96875;stroke-dasharray:none"
				d="m -145.39344,112.91047 6.69065,3.19876 0.46862,-7.40146 -2.40015,4.11112 z"
				inkscape:transform-center-x="1.1794913" inkscape:transform-center-y="-0.41039441" />
			<path id="path2780" style="fill:#000000;stroke:none;stroke-width:3.96875;stroke-dasharray:none"
				d="m -144.71289,114.78007 6.69065,3.19876 0.46862,-7.40146 -2.40015,4.11112 z"
				inkscape:transform-center-x="1.1794913" inkscape:transform-center-y="-0.41039441" />
			<path id="path2782" style="fill:#000000;stroke:none;stroke-width:3.96875;stroke-dasharray:none"
				d="m -143.67604,116.66096 6.69065,3.19876 0.46862,-7.40146 -2.40015,4.11112 z"
				inkscape:transform-center-x="1.1794913" inkscape:transform-center-y="-0.41039441" />
			<path id="path2784" style="fill:#000000;stroke:none;stroke-width:3.96875;stroke-dasharray:none"
				d="m -142.62317,119.48385 6.69065,3.19876 0.46862,-7.40146 -2.40015,4.11112 z"
				inkscape:transform-center-x="1.1794913" inkscape:transform-center-y="-0.41039441" />
			<path id="path2786" style="fill:#000000;stroke:none;stroke-width:3.96875;stroke-dasharray:none"
				d="m -141.75642,121.68956 6.69065,3.19876 0.46862,-7.40146 -2.40015,4.11112 z"
				inkscape:transform-center-x="1.1794913" inkscape:transform-center-y="-0.41039441" />
			<path id="path2788" style="fill:#000000;stroke:none;stroke-width:3.96875;stroke-dasharray:none"
				d="m -141.03873,123.36958 6.69065,3.19876 0.46862,-7.40146 -2.40015,4.11112 z"
				inkscape:transform-center-x="1.1794913" inkscape:transform-center-y="-0.41039441" />
			<path id="path2790" style="fill:#000000;stroke:none;stroke-width:4.49867;stroke-dasharray:none"
				d="m -140.83899,125.65067 7.58401,3.62587 0.5312,-8.38973 -2.72063,4.66005 z"
				inkscape:transform-center-x="1.3369813" inkscape:transform-center-y="-0.46518941" />
			<path id="path2792" style="fill:#000000;stroke:none;stroke-width:4.49867;stroke-dasharray:none"
				d="m -139.91762,127.81396 7.58401,3.62587 0.5312,-8.38973 -2.72063,4.66005 z"
				inkscape:transform-center-x="1.3369813" inkscape:transform-center-y="-0.46518941" />
			<path id="path2794" style="fill:#000000;stroke:none;stroke-width:4.49867;stroke-dasharray:none"
				d="m -138.97706,129.80212 7.58401,3.62587 0.5312,-8.38973 -2.72063,4.66005 z"
				inkscape:transform-center-x="1.3369813" inkscape:transform-center-y="-0.46518941" />
			<path id="path2796" style="fill:#000000;stroke:none;stroke-width:4.49867;stroke-dasharray:none"
				d="m -138.13567,131.91926 7.58401,3.62587 0.5312,-8.38973 -2.72063,4.66005 z"
				inkscape:transform-center-x="1.3369813" inkscape:transform-center-y="-0.46518941" />
			<path id="path2798" style="fill:#000000;stroke:none;stroke-width:4.49867;stroke-dasharray:none"
				d="m -136.91867,137.37825 8.37985,0.66503 -2.51274,-8.02221 -0.86855,5.32574 z"
				inkscape:transform-center-x="0.8086413" inkscape:transform-center-y="-1.3146394" />
			<path id="path2800" style="fill:#000000;stroke:none;stroke-width:4.49867;stroke-dasharray:none"
				d="m -135.60316,138.60835 8.37985,0.66503 -2.51274,-8.02221 -0.86855,5.32574 z"
				inkscape:transform-center-x="0.8086413" inkscape:transform-center-y="-1.3146394" />
			<path id="path2802" style="fill:#000000;stroke:none;stroke-width:4.49867;stroke-dasharray:none"
				d="m -133.33642,139.85393 8.37985,0.66503 -2.51274,-8.02221 -0.86855,5.32574 z"
				inkscape:transform-center-x="0.8086413" inkscape:transform-center-y="-1.3146394" />
			<path id="path2804" style="fill:#000000;stroke:none;stroke-width:4.49867;stroke-dasharray:none"
				d="m -133.33642,139.85393 8.37985,0.66503 -2.51274,-8.02221 -0.86855,5.32574 z"
				inkscape:transform-center-x="0.8086413" inkscape:transform-center-y="-1.3146394" />
			<path id="path2806" style="fill:#000000;stroke:none;stroke-width:4.49867;stroke-dasharray:none"
				d="m -129.15268,141.56655 8.26753,-1.52053 -4.49829,-7.10176 0.53557,5.36945 z"
				inkscape:transform-center-x="0.1710513" inkscape:transform-center-y="-1.0583094" />
			<path id="path2808" style="fill:#000000;stroke:none;stroke-width:4.49867;stroke-dasharray:none"
				d="m -127.33531,142.21289 8.26753,-1.52053 -4.49829,-7.10176 0.53557,5.36945 z"
				inkscape:transform-center-x="0.1710513" inkscape:transform-center-y="-1.0583094" />
			<path id="path2810" style="fill:#000000;stroke:none;stroke-width:4.49867;stroke-dasharray:none"
				d="m -125.25823,143.03424 8.26753,-1.52053 -4.49829,-7.10176 0.53557,5.36945 z"
				inkscape:transform-center-x="0.1710513" inkscape:transform-center-y="-1.0583094" />
			<path id="path2812" style="fill:#000000;stroke:none;stroke-width:4.49867;stroke-dasharray:none"
				d="m -123.40444,143.40383 8.26753,-1.52053 -4.49829,-7.10176 0.53557,5.36945 z"
				inkscape:transform-center-x="0.1710513" inkscape:transform-center-y="-1.0583094" />
		</g>
		<path id="path2774-3" style="fill:#000000;stroke:none;stroke-width:3.96875;stroke-dasharray:none"
			d="m -152.93538,127.21082 6.69065,3.19875 0.46861,-7.40145 -2.40014,4.11112 z"
			inkscape:transform-center-x="1.1794913" inkscape:transform-center-y="-0.41039441" />
		<g id="g2924">
			<path style="fill:none;stroke:#000000;stroke-width:4.26892;stroke-dasharray:none"
				d="m -148.47094,127.44059 12.35467,17.59755 20.87641,1.72323" id="path1923" sodipodi:nodetypes="ccc" />
			<path id="path2870" style="fill:#000000;stroke:none;stroke-width:3.96875;stroke-dasharray:none"
				d="m -151.95753,128.76998 6.69065,3.19875 0.46861,-7.40145 -2.40014,4.11112 z"
				inkscape:transform-center-x="1.1794913" inkscape:transform-center-y="-0.41039441" />
			<path id="path2872" style="fill:#000000;stroke:none;stroke-width:3.96875;stroke-dasharray:none"
				d="m -151.01129,130.77177 6.69065,3.19875 0.46861,-7.40145 -2.40014,4.11112 z"
				inkscape:transform-center-x="1.1794913" inkscape:transform-center-y="-0.41039441" />
			<path id="path2874" style="fill:#000000;stroke:none;stroke-width:3.96875;stroke-dasharray:none"
				d="m -149.7921,132.32328 6.69065,3.19875 0.46861,-7.40145 -2.40014,4.11112 z"
				inkscape:transform-center-x="1.1794913" inkscape:transform-center-y="-0.41039441" />
			<path id="path2876" style="fill:#000000;stroke:none;stroke-width:3.96875;stroke-dasharray:none"
				d="m -148.69348,134.0119 6.69065,3.19875 0.46861,-7.40145 -2.40014,4.11112 z"
				inkscape:transform-center-x="1.1794913" inkscape:transform-center-y="-0.41039441" />
			<path id="path2878" style="fill:#000000;stroke:none;stroke-width:3.96875;stroke-dasharray:none"
				d="m -147.60422,135.93434 6.69065,3.19875 0.46861,-7.40145 -2.40014,4.11112 z"
				inkscape:transform-center-x="1.1794913" inkscape:transform-center-y="-0.41039441" />
			<path id="path2880" style="fill:#000000;stroke:none;stroke-width:3.96875;stroke-dasharray:none"
				d="m -146.06592,137.85108 6.69065,3.19875 0.46861,-7.40145 -2.40014,4.11112 z"
				inkscape:transform-center-x="1.1794913" inkscape:transform-center-y="-0.41039441" />
			<path id="path2882" style="fill:#000000;stroke:none;stroke-width:3.96875;stroke-dasharray:none"
				d="m -144.84232,139.66549 6.69065,3.19875 0.46861,-7.40145 -2.40014,4.11112 z"
				inkscape:transform-center-x="1.1794913" inkscape:transform-center-y="-0.41039441" />
			<path id="path2884" style="fill:#000000;stroke:none;stroke-width:3.96875;stroke-dasharray:none"
				d="m -143.70197,141.07043 6.69065,3.19875 0.46861,-7.40145 -2.40014,4.11112 z"
				inkscape:transform-center-x="1.1794913" inkscape:transform-center-y="-0.41039441" />
			<path id="path2886" style="fill:#000000;stroke:none;stroke-width:3.96875;stroke-dasharray:none"
				d="m -142.9378,142.61942 6.69065,3.19875 0.46861,-7.40145 -2.40014,4.11112 z"
				inkscape:transform-center-x="1.1794913" inkscape:transform-center-y="-0.41039441" />
			<path id="path2888" style="fill:#000000;stroke:none;stroke-width:3.96875;stroke-dasharray:none"
				d="m -142.19478,143.96403 6.69065,3.19875 0.46861,-7.40145 -2.40014,4.11112 z"
				inkscape:transform-center-x="1.1794913" inkscape:transform-center-y="-0.41039441" />
			<path id="path2890" style="fill:#000000;stroke:none;stroke-width:3.96875;stroke-dasharray:none"
				d="m -139.60812,147.09333 7.41501,0.11996 -2.65805,-6.92357 -0.46883,4.73732 z"
				inkscape:transform-center-x="0.5806263" inkscape:transform-center-y="-1.2755344" />
			<path id="path2892" style="fill:#000000;stroke:none;stroke-width:3.96875;stroke-dasharray:none"
				d="m -137.77335,147.6082 7.41501,0.11996 -2.65805,-6.92357 -0.46883,4.73732 z"
				inkscape:transform-center-x="0.5806263" inkscape:transform-center-y="-1.2755344" />
			<path id="path2894" style="fill:#000000;stroke:none;stroke-width:3.96875;stroke-dasharray:none"
				d="m -134.86032,149.00711 7.14212,-1.99674 -4.51975,-5.87988 0.89973,4.67467 z"
				inkscape:transform-center-x="-0.0489587" inkscape:transform-center-y="-0.7363594" />
			<path id="path2896" style="fill:#000000;stroke:none;stroke-width:3.96875;stroke-dasharray:none"
				d="m -132.87905,149.28417 7.14212,-1.99674 -4.51975,-5.87988 0.89973,4.67467 z"
				inkscape:transform-center-x="-0.0489587" inkscape:transform-center-y="-0.7363594" />
			<path id="path2898" style="fill:#000000;stroke:none;stroke-width:3.96875;stroke-dasharray:none"
				d="m -130.66203,149.33486 7.14212,-1.99674 -4.51975,-5.87988 0.89973,4.67467 z"
				inkscape:transform-center-x="-0.0489587" inkscape:transform-center-y="-0.7363594" />
			<path id="path2900" style="fill:#000000;stroke:none;stroke-width:3.96875;stroke-dasharray:none"
				d="m -127.03035,150.06699 6.24583,-3.99831 -6.04182,-4.30087 2.2276,4.20712 z"
				inkscape:transform-center-x="-0.6913037" inkscape:transform-center-y="-0.0575294" />
			<path id="path2902" style="fill:#000000;stroke:none;stroke-width:3.96875;stroke-dasharray:none"
				d="m -124.85474,150.44267 6.24583,-3.99831 -6.04182,-4.30087 2.2276,4.20712 z"
				inkscape:transform-center-x="-0.6913037" inkscape:transform-center-y="-0.0575294" />
		</g>
		<g id="g3475">
			<path style="color:#000000;fill:#000000"
				d="m -116.66992,147.25586 -17.98438,8.80469 -11.74559,44.52715 2.12645,4.83222 12.96485,-46.57812 16.38281,-8.02149 z"
				id="path1927" sodipodi:nodetypes="ccccccc" />
			<g id="g2992" transform="matrix(0.75057971,0.00450179,-0.0948587,0.93252435,-18.215037,13.647643)">
				<path id="path2904" style="fill:#000000;stroke:none;stroke-width:4.74958;stroke-dasharray:none"
					d="m -142.30541,209.15275 -2.12963,-8.61573 -7.1973,5.19337 5.62443,-0.90681 z"
					inkscape:transform-center-x="0.96096807" inkscape:transform-center-y="0.02130773" />
				<path id="path2926" style="fill:#000000;stroke:none;stroke-width:4.74958;stroke-dasharray:none"
					d="m -141.90229,207.24737 -2.12963,-8.61573 -7.1973,5.19337 5.62443,-0.90681 z"
					inkscape:transform-center-x="0.96096807" inkscape:transform-center-y="0.02130773" />
				<path id="path2928" style="fill:#000000;stroke:none;stroke-width:4.74958;stroke-dasharray:none"
					d="m -141.36132,204.78697 -2.12963,-8.61573 -7.1973,5.19337 5.62443,-0.90681 z"
					inkscape:transform-center-x="0.96096807" inkscape:transform-center-y="0.02130773" />
				<path id="path2930" style="fill:#000000;stroke:none;stroke-width:4.74958;stroke-dasharray:none"
					d="m -140.59264,202.88944 -2.12963,-8.61573 -7.1973,5.19337 5.62443,-0.90681 z"
					inkscape:transform-center-x="0.96096807" inkscape:transform-center-y="0.02130773" />
				<path id="path2932" style="fill:#000000;stroke:none;stroke-width:4.74958;stroke-dasharray:none"
					d="m -139.96879,200.79846 -2.12963,-8.61573 -7.1973,5.19337 5.62443,-0.90681 z"
					inkscape:transform-center-x="0.96096807" inkscape:transform-center-y="0.02130773" />
				<path id="path2934" style="fill:#000000;stroke:none;stroke-width:4.74958;stroke-dasharray:none"
					d="m -139.13117,198.67246 -2.12963,-8.61573 -7.1973,5.19337 5.62443,-0.90681 z"
					inkscape:transform-center-x="0.96096807" inkscape:transform-center-y="0.02130773" />
				<path id="path2936" style="fill:#000000;stroke:none;stroke-width:4.74958;stroke-dasharray:none"
					d="m -138.70833,196.0547 -2.12963,-8.61573 -7.1973,5.19337 5.62443,-0.90681 z"
					inkscape:transform-center-x="0.96096807" inkscape:transform-center-y="0.02130773" />
				<path id="path2938" style="fill:#000000;stroke:none;stroke-width:4.74958;stroke-dasharray:none"
					d="m -138.12035,194.20221 -2.12963,-8.61573 -7.1973,5.19337 5.62443,-0.90681 z"
					inkscape:transform-center-x="0.96096807" inkscape:transform-center-y="0.02130773" />
				<path id="path2940" style="fill:#000000;stroke:none;stroke-width:4.74958;stroke-dasharray:none"
					d="m -137.78604,191.61278 -2.12963,-8.61573 -7.1973,5.19337 5.62443,-0.90681 z"
					inkscape:transform-center-x="0.96096807" inkscape:transform-center-y="0.02130773" />
				<path id="path2942" style="fill:#000000;stroke:none;stroke-width:4.74958;stroke-dasharray:none"
					d="m -137.05002,189.46221 -2.12963,-8.61573 -7.1973,5.19337 5.62443,-0.90681 z"
					inkscape:transform-center-x="0.96096807" inkscape:transform-center-y="0.02130773" />
			</g>
			<path id="path2944" style="fill:#000000;stroke:none;stroke-width:4.74958;stroke-dasharray:none"
				d="m -136.47262,187.05038 -2.12963,-8.61573 -7.1973,5.19337 5.62443,-0.90681 z"
				inkscape:transform-center-x="0.96096807" inkscape:transform-center-y="0.02130773" />
			<path id="path2946" style="fill:#000000;stroke:none;stroke-width:4.74958;stroke-dasharray:none"
				d="m -136.13435,185.23536 -2.12963,-8.61573 -7.1973,5.19337 5.62443,-0.90681 z"
				inkscape:transform-center-x="0.96096807" inkscape:transform-center-y="0.02130773" />
			<path id="path2948" style="fill:#000000;stroke:none;stroke-width:4.74958;stroke-dasharray:none"
				d="m -135.71552,182.75069 -2.12963,-8.61573 -7.1973,5.19337 5.62443,-0.90681 z"
				inkscape:transform-center-x="0.96096807" inkscape:transform-center-y="0.02130773" />
			<path id="path2950" style="fill:#000000;stroke:none;stroke-width:4.74958;stroke-dasharray:none"
				d="m -134.90525,180.69658 -2.12963,-8.61573 -7.1973,5.19337 5.62443,-0.90681 z"
				inkscape:transform-center-x="0.96096807" inkscape:transform-center-y="0.02130773" />
			<path id="path2952" style="fill:#000000;stroke:none;stroke-width:4.74958;stroke-dasharray:none"
				d="m -134.09926,178.57276 -2.12963,-8.61573 -7.1973,5.19337 5.62443,-0.90681 z"
				inkscape:transform-center-x="0.96096807" inkscape:transform-center-y="0.02130773" />
			<path id="path2954" style="fill:#000000;stroke:none;stroke-width:4.74958;stroke-dasharray:none"
				d="m -133.05703,176.3183 -2.12963,-8.61573 -7.1973,5.19337 5.62443,-0.90681 z"
				inkscape:transform-center-x="0.96096807" inkscape:transform-center-y="0.02130773" />
			<path id="path2956" style="fill:#000000;stroke:none;stroke-width:4.74958;stroke-dasharray:none"
				d="m -132.18385,173.30477 -2.12963,-8.61573 -7.1973,5.19337 5.62443,-0.90681 z"
				inkscape:transform-center-x="0.96096807" inkscape:transform-center-y="0.02130773" />
			<path id="path2958" style="fill:#000000;stroke:none;stroke-width:4.74958;stroke-dasharray:none"
				d="m -131.78967,170.75704 -2.12963,-8.61573 -7.1973,5.19337 5.62443,-0.90681 z"
				inkscape:transform-center-x="0.96096807" inkscape:transform-center-y="0.02130773" />
			<path id="path2960" style="fill:#000000;stroke:none;stroke-width:4.74958;stroke-dasharray:none"
				d="m -131.12609,168.75642 -2.12963,-8.61573 -7.1973,5.19337 5.62443,-0.90681 z"
				inkscape:transform-center-x="0.96096807" inkscape:transform-center-y="0.02130773" />
			<path id="path2962" style="fill:#000000;stroke:none;stroke-width:4.74958;stroke-dasharray:none"
				d="m -130.97202,166.58582 -2.12963,-8.61573 -7.1973,5.19337 5.62443,-0.90681 z"
				inkscape:transform-center-x="0.96096807" inkscape:transform-center-y="0.02130773" />
			<path id="path2964" style="fill:#000000;stroke:none;stroke-width:4.74958;stroke-dasharray:none"
				d="m -130.76901,162.38919 2.0328,-8.63908 -8.77353,1.34067 5.41927,1.7573 z"
				inkscape:transform-center-x="1.0325081" inkscape:transform-center-y="1.2215727" />
			<path id="path2966" style="fill:#000000;stroke:none;stroke-width:4.74958;stroke-dasharray:none"
				d="m -131.10463,164.86416 0.43896,-8.86416 -8.38707,2.90331 5.64754,0.74956 z"
				inkscape:transform-center-x="1.4540081" inkscape:transform-center-y="0.7792127" />
			<path id="path2970" style="fill:#000000;stroke:none;stroke-width:4.74958;stroke-dasharray:none"
				d="m -129.60488,161.20027 3.43841,-8.18189 -8.87436,-0.13404 5.05246,2.63235 z"
				inkscape:transform-center-x="0.6152831" inkscape:transform-center-y="1.5256177" />
			<path id="path2972" style="fill:#000000;stroke:none;stroke-width:4.74958;stroke-dasharray:none"
				d="m -128.27584,159.96921 4.42051,-7.69579 -8.7902,-1.22666 4.68955,3.23493 z"
				inkscape:transform-center-x="0.2944531" inkscape:transform-center-y="1.2262977" />
			<path id="path2974" style="fill:#000000;stroke:none;stroke-width:4.74958;stroke-dasharray:none"
				d="m -125.89741,158.69477 4.42051,-7.69579 -8.7902,-1.22666 4.68955,3.23493 z"
				inkscape:transform-center-x="0.2944531" inkscape:transform-center-y="1.2262977" />
			<path id="path2976" style="fill:#000000;stroke:none;stroke-width:4.74958;stroke-dasharray:none"
				d="m -123.15518,157.85372 4.42051,-7.69579 -8.7902,-1.22666 4.68955,3.23493 z"
				inkscape:transform-center-x="0.2944531" inkscape:transform-center-y="1.2262977" />
			<path id="path2978" style="fill:#000000;stroke:none;stroke-width:4.74958;stroke-dasharray:none"
				d="m -121.07696,157.01403 4.42051,-7.69579 -8.7902,-1.22666 4.68955,3.23493 z"
				inkscape:transform-center-x="0.2944531" inkscape:transform-center-y="1.2262977" />
			<path id="path2980" style="fill:#000000;stroke:none;stroke-width:4.74958;stroke-dasharray:none"
				d="m -117.9845,156.66266 4.42051,-7.69579 -8.7902,-1.22666 4.68955,3.23493 z"
				inkscape:transform-center-x="0.2944531" inkscape:transform-center-y="1.2262977" />
		</g>
		<path id="path3245"
			style="fill:url(#linearGradient3354);stroke:none;stroke-width:3.337;stroke-dasharray:none;fill-opacity:1"
			d="m -103.79274,137.584 a 8.9084711,6.5408645 0 0 0 -5.80947,1.58957 7.8092294,9.0201836 0 0 1 1.05162,4.5098 7.8092294,9.0201836 0 0 1 -1.40767,5.15576 8.9084711,6.5408645 0 0 0 6.16552,1.82676 8.9084711,6.5408645 0 0 0 6.185664,-1.8402 7.8092294,9.0201836 0 0 1 -1.181324,-4.76301 7.8092294,9.0201836 0 0 1 1.136365,-4.67517 8.9084711,6.5408645 0 0 0 -6.140705,-1.80351 z" />
		<path style="fill:none;stroke:#000000;stroke-width:3.96875;stroke-dasharray:none"
			d="m -92.225239,121.59527 5.55076,-9.06074 -6.27378,-10.89865" id="path3477" />
		<g id="g3523" transform="matrix(-1,0,0,1,-212.53475,-0.02063435)">
			<path style="fill:none;stroke:#000000;stroke-width:3.96875;stroke-dasharray:none"
				d="m -143.1907,107.68836 12.08048,28.13337 15.72434,4.99057" id="path3479" sodipodi:nodetypes="ccc" />
			<path id="path3481" style="fill:#000000;stroke:none;stroke-width:3.96875;stroke-dasharray:none"
				d="m -147.94982,107.77994 6.69065,3.19876 0.46862,-7.40146 -2.40015,4.11112 z"
				inkscape:transform-center-x="1.1794913" inkscape:transform-center-y="-0.41039441" />
			<path id="path3483" style="fill:#000000;stroke:none;stroke-width:3.96875;stroke-dasharray:none"
				d="m -147.13233,109.28683 6.69065,3.19876 0.46862,-7.40146 -2.40015,4.11112 z"
				inkscape:transform-center-x="1.1794913" inkscape:transform-center-y="-0.41039441" />
			<path id="path3485" style="fill:#000000;stroke:none;stroke-width:3.96875;stroke-dasharray:none"
				d="m -146.18722,111.15506 6.69065,3.19876 0.46862,-7.40146 -2.40015,4.11112 z"
				inkscape:transform-center-x="1.1794913" inkscape:transform-center-y="-0.41039441" />
			<path id="path3487" style="fill:#000000;stroke:none;stroke-width:3.96875;stroke-dasharray:none"
				d="m -145.39344,112.91047 6.69065,3.19876 0.46862,-7.40146 -2.40015,4.11112 z"
				inkscape:transform-center-x="1.1794913" inkscape:transform-center-y="-0.41039441" />
			<path id="path3489" style="fill:#000000;stroke:none;stroke-width:3.96875;stroke-dasharray:none"
				d="m -144.71289,114.78007 6.69065,3.19876 0.46862,-7.40146 -2.40015,4.11112 z"
				inkscape:transform-center-x="1.1794913" inkscape:transform-center-y="-0.41039441" />
			<path id="path3491" style="fill:#000000;stroke:none;stroke-width:3.96875;stroke-dasharray:none"
				d="m -143.67604,116.66096 6.69065,3.19876 0.46862,-7.40146 -2.40015,4.11112 z"
				inkscape:transform-center-x="1.1794913" inkscape:transform-center-y="-0.41039441" />
			<path id="path3493" style="fill:#000000;stroke:none;stroke-width:3.96875;stroke-dasharray:none"
				d="m -142.62317,119.48385 6.69065,3.19876 0.46862,-7.40146 -2.40015,4.11112 z"
				inkscape:transform-center-x="1.1794913" inkscape:transform-center-y="-0.41039441" />
			<path id="path3495" style="fill:#000000;stroke:none;stroke-width:3.96875;stroke-dasharray:none"
				d="m -141.75642,121.68956 6.69065,3.19876 0.46862,-7.40146 -2.40015,4.11112 z"
				inkscape:transform-center-x="1.1794913" inkscape:transform-center-y="-0.41039441" />
			<path id="path3497" style="fill:#000000;stroke:none;stroke-width:3.96875;stroke-dasharray:none"
				d="m -141.03873,123.36958 6.69065,3.19876 0.46862,-7.40146 -2.40015,4.11112 z"
				inkscape:transform-center-x="1.1794913" inkscape:transform-center-y="-0.41039441" />
			<path id="path3499" style="fill:#000000;stroke:none;stroke-width:4.49867;stroke-dasharray:none"
				d="m -140.83899,125.65067 7.58401,3.62587 0.5312,-8.38973 -2.72063,4.66005 z"
				inkscape:transform-center-x="1.3369813" inkscape:transform-center-y="-0.46518941" />
			<path id="path3501" style="fill:#000000;stroke:none;stroke-width:4.49867;stroke-dasharray:none"
				d="m -139.91762,127.81396 7.58401,3.62587 0.5312,-8.38973 -2.72063,4.66005 z"
				inkscape:transform-center-x="1.3369813" inkscape:transform-center-y="-0.46518941" />
			<path id="path3503" style="fill:#000000;stroke:none;stroke-width:4.49867;stroke-dasharray:none"
				d="m -138.97706,129.80212 7.58401,3.62587 0.5312,-8.38973 -2.72063,4.66005 z"
				inkscape:transform-center-x="1.3369813" inkscape:transform-center-y="-0.46518941" />
			<path id="path3505" style="fill:#000000;stroke:none;stroke-width:4.49867;stroke-dasharray:none"
				d="m -138.13567,131.91926 7.58401,3.62587 0.5312,-8.38973 -2.72063,4.66005 z"
				inkscape:transform-center-x="1.3369813" inkscape:transform-center-y="-0.46518941" />
			<path id="path3507" style="fill:#000000;stroke:none;stroke-width:4.49867;stroke-dasharray:none"
				d="m -136.91867,137.37825 8.37985,0.66503 -2.51274,-8.02221 -0.86855,5.32574 z"
				inkscape:transform-center-x="0.8086413" inkscape:transform-center-y="-1.3146394" />
			<path id="path3509" style="fill:#000000;stroke:none;stroke-width:4.49867;stroke-dasharray:none"
				d="m -135.60316,138.60835 8.37985,0.66503 -2.51274,-8.02221 -0.86855,5.32574 z"
				inkscape:transform-center-x="0.8086413" inkscape:transform-center-y="-1.3146394" />
			<path id="path3511" style="fill:#000000;stroke:none;stroke-width:4.49867;stroke-dasharray:none"
				d="m -133.33642,139.85393 8.37985,0.66503 -2.51274,-8.02221 -0.86855,5.32574 z"
				inkscape:transform-center-x="0.8086413" inkscape:transform-center-y="-1.3146394" />
			<path id="path3513" style="fill:#000000;stroke:none;stroke-width:4.49867;stroke-dasharray:none"
				d="m -133.33642,139.85393 8.37985,0.66503 -2.51274,-8.02221 -0.86855,5.32574 z"
				inkscape:transform-center-x="0.8086413" inkscape:transform-center-y="-1.3146394" />
			<path id="path3515" style="fill:#000000;stroke:none;stroke-width:4.49867;stroke-dasharray:none"
				d="m -129.15268,141.56655 8.26753,-1.52053 -4.49829,-7.10176 0.53557,5.36945 z"
				inkscape:transform-center-x="0.1710513" inkscape:transform-center-y="-1.0583094" />
			<path id="path3517" style="fill:#000000;stroke:none;stroke-width:4.49867;stroke-dasharray:none"
				d="m -127.33531,142.21289 8.26753,-1.52053 -4.49829,-7.10176 0.53557,5.36945 z"
				inkscape:transform-center-x="0.1710513" inkscape:transform-center-y="-1.0583094" />
			<path id="path3519" style="fill:#000000;stroke:none;stroke-width:4.49867;stroke-dasharray:none"
				d="m -125.25823,143.03424 8.26753,-1.52053 -4.49829,-7.10176 0.53557,5.36945 z"
				inkscape:transform-center-x="0.1710513" inkscape:transform-center-y="-1.0583094" />
			<path id="path3521" style="fill:#000000;stroke:none;stroke-width:4.49867;stroke-dasharray:none"
				d="m -123.40444,143.40383 8.26753,-1.52053 -4.49829,-7.10176 0.53557,5.36945 z"
				inkscape:transform-center-x="0.1710513" inkscape:transform-center-y="-1.0583094" />
		</g>
		<path id="path3525" style="fill:#000000;stroke:none;stroke-width:3.96875;stroke-dasharray:none"
			d="m -55.277509,126.86751 -6.69065,3.19875 -0.46861,-7.40145 2.40014,4.11112 z"
			inkscape:transform-center-x="-1.1794921" inkscape:transform-center-y="-0.41039441" />
		<g id="g3563" transform="matrix(-1,0,0,1,-208.21289,-0.34331165)">
			<path style="fill:none;stroke:#000000;stroke-width:4.26892;stroke-dasharray:none"
				d="m -148.47094,127.44059 12.35467,17.59755 20.87641,1.72323" id="path3527" sodipodi:nodetypes="ccc" />
			<path id="path3529" style="fill:#000000;stroke:none;stroke-width:3.96875;stroke-dasharray:none"
				d="m -151.95753,128.76998 6.69065,3.19875 0.46861,-7.40145 -2.40014,4.11112 z"
				inkscape:transform-center-x="1.1794913" inkscape:transform-center-y="-0.41039441" />
			<path id="path3531" style="fill:#000000;stroke:none;stroke-width:3.96875;stroke-dasharray:none"
				d="m -151.01129,130.77177 6.69065,3.19875 0.46861,-7.40145 -2.40014,4.11112 z"
				inkscape:transform-center-x="1.1794913" inkscape:transform-center-y="-0.41039441" />
			<path id="path3533" style="fill:#000000;stroke:none;stroke-width:3.96875;stroke-dasharray:none"
				d="m -149.7921,132.32328 6.69065,3.19875 0.46861,-7.40145 -2.40014,4.11112 z"
				inkscape:transform-center-x="1.1794913" inkscape:transform-center-y="-0.41039441" />
			<path id="path3535" style="fill:#000000;stroke:none;stroke-width:3.96875;stroke-dasharray:none"
				d="m -148.69348,134.0119 6.69065,3.19875 0.46861,-7.40145 -2.40014,4.11112 z"
				inkscape:transform-center-x="1.1794913" inkscape:transform-center-y="-0.41039441" />
			<path id="path3537" style="fill:#000000;stroke:none;stroke-width:3.96875;stroke-dasharray:none"
				d="m -147.60422,135.93434 6.69065,3.19875 0.46861,-7.40145 -2.40014,4.11112 z"
				inkscape:transform-center-x="1.1794913" inkscape:transform-center-y="-0.41039441" />
			<path id="path3539" style="fill:#000000;stroke:none;stroke-width:3.96875;stroke-dasharray:none"
				d="m -146.06592,137.85108 6.69065,3.19875 0.46861,-7.40145 -2.40014,4.11112 z"
				inkscape:transform-center-x="1.1794913" inkscape:transform-center-y="-0.41039441" />
			<path id="path3541" style="fill:#000000;stroke:none;stroke-width:3.96875;stroke-dasharray:none"
				d="m -144.84232,139.66549 6.69065,3.19875 0.46861,-7.40145 -2.40014,4.11112 z"
				inkscape:transform-center-x="1.1794913" inkscape:transform-center-y="-0.41039441" />
			<path id="path3543" style="fill:#000000;stroke:none;stroke-width:3.96875;stroke-dasharray:none"
				d="m -143.70197,141.07043 6.69065,3.19875 0.46861,-7.40145 -2.40014,4.11112 z"
				inkscape:transform-center-x="1.1794913" inkscape:transform-center-y="-0.41039441" />
			<path id="path3545" style="fill:#000000;stroke:none;stroke-width:3.96875;stroke-dasharray:none"
				d="m -142.9378,142.61942 6.69065,3.19875 0.46861,-7.40145 -2.40014,4.11112 z"
				inkscape:transform-center-x="1.1794913" inkscape:transform-center-y="-0.41039441" />
			<path id="path3547" style="fill:#000000;stroke:none;stroke-width:3.96875;stroke-dasharray:none"
				d="m -142.19478,143.96403 6.69065,3.19875 0.46861,-7.40145 -2.40014,4.11112 z"
				inkscape:transform-center-x="1.1794913" inkscape:transform-center-y="-0.41039441" />
			<path id="path3549" style="fill:#000000;stroke:none;stroke-width:3.96875;stroke-dasharray:none"
				d="m -139.60812,147.09333 7.41501,0.11996 -2.65805,-6.92357 -0.46883,4.73732 z"
				inkscape:transform-center-x="0.5806263" inkscape:transform-center-y="-1.2755344" />
			<path id="path3551" style="fill:#000000;stroke:none;stroke-width:3.96875;stroke-dasharray:none"
				d="m -137.77335,147.6082 7.41501,0.11996 -2.65805,-6.92357 -0.46883,4.73732 z"
				inkscape:transform-center-x="0.5806263" inkscape:transform-center-y="-1.2755344" />
			<path id="path3553" style="fill:#000000;stroke:none;stroke-width:3.96875;stroke-dasharray:none"
				d="m -134.86032,149.00711 7.14212,-1.99674 -4.51975,-5.87988 0.89973,4.67467 z"
				inkscape:transform-center-x="-0.0489587" inkscape:transform-center-y="-0.7363594" />
			<path id="path3555" style="fill:#000000;stroke:none;stroke-width:3.96875;stroke-dasharray:none"
				d="m -132.87905,149.28417 7.14212,-1.99674 -4.51975,-5.87988 0.89973,4.67467 z"
				inkscape:transform-center-x="-0.0489587" inkscape:transform-center-y="-0.7363594" />
			<path id="path3557" style="fill:#000000;stroke:none;stroke-width:3.96875;stroke-dasharray:none"
				d="m -130.66203,149.33486 7.14212,-1.99674 -4.51975,-5.87988 0.89973,4.67467 z"
				inkscape:transform-center-x="-0.0489587" inkscape:transform-center-y="-0.7363594" />
			<path id="path3559" style="fill:#000000;stroke:none;stroke-width:3.96875;stroke-dasharray:none"
				d="m -127.03035,150.06699 6.24583,-3.99831 -6.04182,-4.30087 2.2276,4.20712 z"
				inkscape:transform-center-x="-0.6913037" inkscape:transform-center-y="-0.0575294" />
			<path id="path3561" style="fill:#000000;stroke:none;stroke-width:3.96875;stroke-dasharray:none"
				d="m -124.85474,150.44267 6.24583,-3.99831 -6.04182,-4.30087 2.2276,4.20712 z"
				inkscape:transform-center-x="-0.6913037" inkscape:transform-center-y="-0.0575294" />
		</g>
		<g id="g3625" transform="matrix(-1,0,0,1,-208.21289,-0.34331165)">
			<path style="color:#000000;fill:#000000"
				d="m -116.66992,147.25586 -17.98438,8.80469 -11.74559,44.52715 2.12645,4.83222 12.96485,-46.57812 16.38281,-8.02149 z"
				id="path3565" sodipodi:nodetypes="ccccccc" />
			<g id="g3587" transform="matrix(0.75057971,0.00450179,-0.0948587,0.93252435,-18.215037,13.647643)">
				<path id="path3567" style="fill:#000000;stroke:none;stroke-width:4.74958;stroke-dasharray:none"
					d="m -142.30541,209.15275 -2.12963,-8.61573 -7.1973,5.19337 5.62443,-0.90681 z"
					inkscape:transform-center-x="0.96096807" inkscape:transform-center-y="0.02130773" />
				<path id="path3569" style="fill:#000000;stroke:none;stroke-width:4.74958;stroke-dasharray:none"
					d="m -141.90229,207.24737 -2.12963,-8.61573 -7.1973,5.19337 5.62443,-0.90681 z"
					inkscape:transform-center-x="0.96096807" inkscape:transform-center-y="0.02130773" />
				<path id="path3571" style="fill:#000000;stroke:none;stroke-width:4.74958;stroke-dasharray:none"
					d="m -141.36132,204.78697 -2.12963,-8.61573 -7.1973,5.19337 5.62443,-0.90681 z"
					inkscape:transform-center-x="0.96096807" inkscape:transform-center-y="0.02130773" />
				<path id="path3573" style="fill:#000000;stroke:none;stroke-width:4.74958;stroke-dasharray:none"
					d="m -140.59264,202.88944 -2.12963,-8.61573 -7.1973,5.19337 5.62443,-0.90681 z"
					inkscape:transform-center-x="0.96096807" inkscape:transform-center-y="0.02130773" />
				<path id="path3575" style="fill:#000000;stroke:none;stroke-width:4.74958;stroke-dasharray:none"
					d="m -139.96879,200.79846 -2.12963,-8.61573 -7.1973,5.19337 5.62443,-0.90681 z"
					inkscape:transform-center-x="0.96096807" inkscape:transform-center-y="0.02130773" />
				<path id="path3577" style="fill:#000000;stroke:none;stroke-width:4.74958;stroke-dasharray:none"
					d="m -139.13117,198.67246 -2.12963,-8.61573 -7.1973,5.19337 5.62443,-0.90681 z"
					inkscape:transform-center-x="0.96096807" inkscape:transform-center-y="0.02130773" />
				<path id="path3579" style="fill:#000000;stroke:none;stroke-width:4.74958;stroke-dasharray:none"
					d="m -138.70833,196.0547 -2.12963,-8.61573 -7.1973,5.19337 5.62443,-0.90681 z"
					inkscape:transform-center-x="0.96096807" inkscape:transform-center-y="0.02130773" />
				<path id="path3581" style="fill:#000000;stroke:none;stroke-width:4.74958;stroke-dasharray:none"
					d="m -138.12035,194.20221 -2.12963,-8.61573 -7.1973,5.19337 5.62443,-0.90681 z"
					inkscape:transform-center-x="0.96096807" inkscape:transform-center-y="0.02130773" />
				<path id="path3583" style="fill:#000000;stroke:none;stroke-width:4.74958;stroke-dasharray:none"
					d="m -137.78604,191.61278 -2.12963,-8.61573 -7.1973,5.19337 5.62443,-0.90681 z"
					inkscape:transform-center-x="0.96096807" inkscape:transform-center-y="0.02130773" />
				<path id="path3585" style="fill:#000000;stroke:none;stroke-width:4.74958;stroke-dasharray:none"
					d="m -137.05002,189.46221 -2.12963,-8.61573 -7.1973,5.19337 5.62443,-0.90681 z"
					inkscape:transform-center-x="0.96096807" inkscape:transform-center-y="0.02130773" />
			</g>
			<path id="path3589" style="fill:#000000;stroke:none;stroke-width:4.74958;stroke-dasharray:none"
				d="m -136.47262,187.05038 -2.12963,-8.61573 -7.1973,5.19337 5.62443,-0.90681 z"
				inkscape:transform-center-x="0.96096807" inkscape:transform-center-y="0.02130773" />
			<path id="path3591" style="fill:#000000;stroke:none;stroke-width:4.74958;stroke-dasharray:none"
				d="m -136.13435,185.23536 -2.12963,-8.61573 -7.1973,5.19337 5.62443,-0.90681 z"
				inkscape:transform-center-x="0.96096807" inkscape:transform-center-y="0.02130773" />
			<path id="path3593" style="fill:#000000;stroke:none;stroke-width:4.74958;stroke-dasharray:none"
				d="m -135.71552,182.75069 -2.12963,-8.61573 -7.1973,5.19337 5.62443,-0.90681 z"
				inkscape:transform-center-x="0.96096807" inkscape:transform-center-y="0.02130773" />
			<path id="path3595" style="fill:#000000;stroke:none;stroke-width:4.74958;stroke-dasharray:none"
				d="m -134.90525,180.69658 -2.12963,-8.61573 -7.1973,5.19337 5.62443,-0.90681 z"
				inkscape:transform-center-x="0.96096807" inkscape:transform-center-y="0.02130773" />
			<path id="path3597" style="fill:#000000;stroke:none;stroke-width:4.74958;stroke-dasharray:none"
				d="m -134.09926,178.57276 -2.12963,-8.61573 -7.1973,5.19337 5.62443,-0.90681 z"
				inkscape:transform-center-x="0.96096807" inkscape:transform-center-y="0.02130773" />
			<path id="path3599" style="fill:#000000;stroke:none;stroke-width:4.74958;stroke-dasharray:none"
				d="m -133.05703,176.3183 -2.12963,-8.61573 -7.1973,5.19337 5.62443,-0.90681 z"
				inkscape:transform-center-x="0.96096807" inkscape:transform-center-y="0.02130773" />
			<path id="path3601" style="fill:#000000;stroke:none;stroke-width:4.74958;stroke-dasharray:none"
				d="m -132.18385,173.30477 -2.12963,-8.61573 -7.1973,5.19337 5.62443,-0.90681 z"
				inkscape:transform-center-x="0.96096807" inkscape:transform-center-y="0.02130773" />
			<path id="path3603" style="fill:#000000;stroke:none;stroke-width:4.74958;stroke-dasharray:none"
				d="m -131.78967,170.75704 -2.12963,-8.61573 -7.1973,5.19337 5.62443,-0.90681 z"
				inkscape:transform-center-x="0.96096807" inkscape:transform-center-y="0.02130773" />
			<path id="path3605" style="fill:#000000;stroke:none;stroke-width:4.74958;stroke-dasharray:none"
				d="m -131.12609,168.75642 -2.12963,-8.61573 -7.1973,5.19337 5.62443,-0.90681 z"
				inkscape:transform-center-x="0.96096807" inkscape:transform-center-y="0.02130773" />
			<path id="path3607" style="fill:#000000;stroke:none;stroke-width:4.74958;stroke-dasharray:none"
				d="m -130.97202,166.58582 -2.12963,-8.61573 -7.1973,5.19337 5.62443,-0.90681 z"
				inkscape:transform-center-x="0.96096807" inkscape:transform-center-y="0.02130773" />
			<path id="path3609" style="fill:#000000;stroke:none;stroke-width:4.74958;stroke-dasharray:none"
				d="m -130.76901,162.38919 2.0328,-8.63908 -8.77353,1.34067 5.41927,1.7573 z"
				inkscape:transform-center-x="1.0325081" inkscape:transform-center-y="1.2215727" />
			<path id="path3611" style="fill:#000000;stroke:none;stroke-width:4.74958;stroke-dasharray:none"
				d="m -131.10463,164.86416 0.43896,-8.86416 -8.38707,2.90331 5.64754,0.74956 z"
				inkscape:transform-center-x="1.4540081" inkscape:transform-center-y="0.7792127" />
			<path id="path3613" style="fill:#000000;stroke:none;stroke-width:4.74958;stroke-dasharray:none"
				d="m -129.60488,161.20027 3.43841,-8.18189 -8.87436,-0.13404 5.05246,2.63235 z"
				inkscape:transform-center-x="0.6152831" inkscape:transform-center-y="1.5256177" />
			<path id="path3615" style="fill:#000000;stroke:none;stroke-width:4.74958;stroke-dasharray:none"
				d="m -128.27584,159.96921 4.42051,-7.69579 -8.7902,-1.22666 4.68955,3.23493 z"
				inkscape:transform-center-x="0.2944531" inkscape:transform-center-y="1.2262977" />
			<path id="path3617" style="fill:#000000;stroke:none;stroke-width:4.74958;stroke-dasharray:none"
				d="m -125.89741,158.69477 4.42051,-7.69579 -8.7902,-1.22666 4.68955,3.23493 z"
				inkscape:transform-center-x="0.2944531" inkscape:transform-center-y="1.2262977" />
			<path id="path3619" style="fill:#000000;stroke:none;stroke-width:4.74958;stroke-dasharray:none"
				d="m -123.15518,157.85372 4.42051,-7.69579 -8.7902,-1.22666 4.68955,3.23493 z"
				inkscape:transform-center-x="0.2944531" inkscape:transform-center-y="1.2262977" />
			<path id="path3621" style="fill:#000000;stroke:none;stroke-width:4.74958;stroke-dasharray:none"
				d="m -121.07696,157.01403 4.42051,-7.69579 -8.7902,-1.22666 4.68955,3.23493 z"
				inkscape:transform-center-x="0.2944531" inkscape:transform-center-y="1.2262977" />
			<path id="path3623" style="fill:#000000;stroke:none;stroke-width:4.74958;stroke-dasharray:none"
				d="m -117.9845,156.66266 4.42051,-7.69579 -8.7902,-1.22666 4.68955,3.23493 z"
				inkscape:transform-center-x="0.2944531" inkscape:transform-center-y="1.2262977" />
		</g>
	</g>
</svg>